<?xml version="1.0" encoding="UTF-8"?>
<svg xmlns="http://www.w3.org/2000/svg" width="46" height="47" viewBox="0 0 46 47" fill="none">
  <path d="M29.6397 14.5684C20.8158 14.5684 13.6572 21.727 13.6572 30.5508C13.6572 39.3746 20.8158 46.5332 29.6397 46.5332C38.4635 46.5332 45.6221 39.3746 45.6221 30.5508C45.6221 21.727 38.4635 14.5684 29.6397 14.5684ZM29.6397 44.6096C21.8781 44.6096 15.5809 38.3123 15.5809 30.5508C15.5809 22.7893 21.8781 16.492 29.6397 16.492C37.4012 16.492 43.6984 22.7893 43.6984 30.5508C43.6984 38.3123 37.4012 44.6096 29.6397 44.6096Z" fill="#B7E3EE"></path>
  <path d="M29.6393 17.8896C22.6529 17.8896 16.9873 23.5553 16.9873 30.5416C16.9873 37.5279 22.6529 43.1936 29.6393 43.1936C36.6256 43.1936 42.2912 37.5375 42.2912 30.5512C42.2912 23.5648 36.6256 17.8896 29.6393 17.8896ZM36.2715 29.0008L30.0795 32.9246C29.5627 33.25 28.8832 33.116 28.5291 32.6279L22.5189 26.6178C22.0691 26.168 22.0691 25.4406 22.5189 24.9908L22.5381 24.9717C22.9879 24.5219 23.7152 24.5219 24.165 24.9717L29.6488 30.4555L35.0369 27.0484C35.5728 26.7135 36.2811 26.8666 36.6256 27.4025L36.6447 27.4312C36.9701 27.948 36.8074 28.6658 36.2715 29.0008Z" fill="#B7E3EE"></path>
  <path d="M26.7969 2.98773H17.3988C17.3318 1.27464 15.8867 -0.0556308 14.1832 0.00179106C12.5562 0.0687832 11.2643 1.37035 11.1973 2.98773H2.29688C1.02402 2.98773 0 4.01175 0 5.2846V35.9096C0 37.1825 1.02402 38.2065 2.29688 38.2065H26.7969C28.0697 38.2065 29.0938 37.1825 29.0938 35.9096V5.2846C29.0938 4.01175 28.0697 2.98773 26.7969 2.98773ZM6.89062 9.19886H22.2031C22.6242 9.19886 22.9688 8.85433 22.9688 8.43324V7.58148H24.5V33.6127H4.59375V7.58148H6.125V8.43324C6.125 8.85433 6.46953 9.19886 6.89062 9.19886ZM14.298 1.45648C15.1498 1.45648 15.8484 2.13597 15.8771 2.98773H12.7285C12.7477 2.13597 13.4463 1.45648 14.298 1.45648ZM21.4375 4.51898V7.66761H7.65625V4.51898H21.4375ZM27.5625 35.9096C27.5625 36.3307 27.218 36.6752 26.7969 36.6752H2.29688C1.87578 36.6752 1.53125 36.3307 1.53125 35.9096V5.2846C1.53125 4.86351 1.87578 4.51898 2.29688 4.51898H6.125V6.05023H3.82812C3.40703 6.05023 3.0625 6.39476 3.0625 6.81585V34.3784C3.0625 34.7994 3.40703 35.144 3.82812 35.144H25.2656C25.6867 35.144 26.0312 34.7994 26.0312 34.3784V6.81585C26.0312 6.39476 25.6867 6.05023 25.2656 6.05023H22.9688V4.51898H26.7969C27.218 4.51898 27.5625 4.86351 27.5625 5.2846V35.9096Z" fill="#04435F"></path>
  <path d="M12.25 14.4727H13.7812V16.0039C13.7812 16.425 14.1258 16.7695 14.5469 16.7695C14.968 16.7695 15.3125 16.425 15.3125 16.0039V14.4727H16.8438C17.2648 14.4727 17.6094 14.1281 17.6094 13.707C17.6094 13.2859 17.2648 12.9414 16.8438 12.9414H15.3125V11.4102C15.3125 10.9891 14.968 10.6445 14.5469 10.6445C14.1258 10.6445 13.7812 10.9891 13.7812 11.4102V12.9414H12.25C11.8289 12.9414 11.4844 13.2859 11.4844 13.707C11.4844 14.1281 11.8289 14.4727 12.25 14.4727Z" fill="#04435F"></path>
  <path d="M6.89062 21.3633H22.2031C22.6242 21.3633 22.9688 21.0187 22.9688 20.5977C22.9688 20.1766 22.6242 19.832 22.2031 19.832H6.89062C6.46953 19.832 6.125 20.1766 6.125 20.5977C6.125 21.0187 6.46953 21.3633 6.89062 21.3633Z" fill="#04435F"></path>
  <path d="M22.2031 24.4258H6.89062C6.46953 24.4258 6.125 24.7703 6.125 25.1914C6.125 25.6125 6.46953 25.957 6.89062 25.957H22.2031C22.6242 25.957 22.9688 25.6125 22.9688 25.1914C22.9688 24.7703 22.6242 24.4258 22.2031 24.4258Z" fill="#04435F"></path>
  <path d="M22.2031 29.0195H6.89062C6.46953 29.0195 6.125 29.3641 6.125 29.7852C6.125 30.2062 6.46953 30.5508 6.89062 30.5508H22.2031C22.6242 30.5508 22.9688 30.2062 22.9688 29.7852C22.9688 29.3641 22.6242 29.0195 22.2031 29.0195Z" fill="#04435F"></path>
</svg>
