<?xml version="1.0" encoding="UTF-8"?>
<svg xmlns="http://www.w3.org/2000/svg" width="49" height="47" viewBox="0 0 49 47" fill="none">
  <path d="M29.3652 14.7861H30.1465V15.5518C30.1465 15.9729 30.498 16.3174 30.9277 16.3174C31.3574 16.3174 31.709 15.9729 31.709 15.5518V14.7861H32.4902C32.9199 14.7861 33.2715 14.4416 33.2715 14.0205C33.2715 13.5994 32.9199 13.2549 32.4902 13.2549H31.709V12.4893C31.709 12.0682 31.3574 11.7236 30.9277 11.7236C30.498 11.7236 30.1465 12.0682 30.1465 12.4893V13.2549H29.3652C28.9355 13.2549 28.584 13.5994 28.584 14.0205C28.584 14.4416 28.9355 14.7861 29.3652 14.7861Z" fill="#B7E3EE"></path>
  <path d="M45.7715 13.2549H36.3965V10.958C36.3965 9.68516 35.3516 8.66113 34.0527 8.66113H27.8027C26.5039 8.66113 25.459 9.68516 25.459 10.958V13.2549H16.084C14.7852 13.2549 13.7402 14.2789 13.7402 15.5518V44.6455C13.7402 45.9184 14.7852 46.9424 16.084 46.9424H45.7715C47.0703 46.9424 48.1152 45.9184 48.1152 44.6455V15.5518C48.1152 14.2789 47.0703 13.2549 45.7715 13.2549ZM24.6777 34.6924C24.6777 35.1135 24.3262 35.458 23.8965 35.458H19.209C18.7793 35.458 18.4277 35.1135 18.4277 34.6924V30.0986C18.4277 29.6775 18.7793 29.333 19.209 29.333H23.8965C24.3262 29.333 24.6777 29.6775 24.6777 30.0986V34.6924ZM24.6777 26.2705C24.6777 26.6916 24.3262 27.0361 23.8965 27.0361H19.209C18.7793 27.0361 18.4277 26.6916 18.4277 26.2705V21.6768C18.4277 21.2557 18.7793 20.9111 19.209 20.9111H23.8965C24.3262 20.9111 24.6777 21.2557 24.6777 21.6768V26.2705ZM27.0215 10.958C27.0215 10.5369 27.373 10.1924 27.8027 10.1924H34.0527C34.4824 10.1924 34.834 10.5369 34.834 10.958V17.083C34.834 17.5041 34.4824 17.8486 34.0527 17.8486H27.8027C27.373 17.8486 27.0215 17.5041 27.0215 17.083V10.958ZM33.2715 27.0361H28.584C28.1543 27.0361 27.8027 26.6916 27.8027 26.2705V21.6768C27.8027 21.2557 28.1543 20.9111 28.584 20.9111H33.2715C33.7012 20.9111 34.0527 21.2557 34.0527 21.6768V26.2705C34.0527 26.6916 33.7012 27.0361 33.2715 27.0361ZM34.0527 30.0986V34.6924C34.0527 35.1135 33.7012 35.458 33.2715 35.458H28.584C28.1543 35.458 27.8027 35.1135 27.8027 34.6924V30.0986C27.8027 29.6775 28.1543 29.333 28.584 29.333H33.2715C33.7012 29.333 34.0527 29.6775 34.0527 30.0986ZM30.1465 45.4111H25.459V38.5205C25.459 38.0994 25.8105 37.7549 26.2402 37.7549H30.1465V45.4111ZM36.3965 45.4111H31.709V37.7549H35.6152C36.0449 37.7549 36.3965 38.0994 36.3965 38.5205V45.4111ZM43.4277 34.6924C43.4277 35.1135 43.0762 35.458 42.6465 35.458H37.959C37.5293 35.458 37.1777 35.1135 37.1777 34.6924V30.0986C37.1777 29.6775 37.5293 29.333 37.959 29.333H42.6465C43.0762 29.333 43.4277 29.6775 43.4277 30.0986V34.6924ZM43.4277 26.2705C43.4277 26.6916 43.0762 27.0361 42.6465 27.0361H37.959C37.5293 27.0361 37.1777 26.6916 37.1777 26.2705V21.6768C37.1777 21.2557 37.5293 20.9111 37.959 20.9111H42.6465C43.0762 20.9111 43.4277 21.2557 43.4277 21.6768V26.2705Z" fill="#B7E3EE"></path>
  <path d="M11.6602 23.4375H10.9375V22.5379H11.6602C12.002 22.5379 12.2754 22.2604 12.2754 21.935C12.2754 21.6 11.9922 21.332 11.6602 21.332H10.9375V18.6332C10.9375 18.2982 10.6543 18.0303 10.3223 18.0303C9.98047 18.0303 9.70703 18.3078 9.70703 18.6332V21.332H6.76758L4.91211 18.4609C4.83399 18.2217 4.59961 18.0398 4.32617 18.0398C3.98438 18.0398 3.71094 18.3174 3.71094 18.6428V21.3416H2.98828C2.64648 21.3416 2.37305 21.6191 2.37305 21.9445C2.37305 22.2795 2.65625 22.5475 2.98828 22.5475H3.71094V23.4471H2.98828C2.64648 23.4471 2.37305 23.7246 2.37305 24.05C2.37305 24.385 2.65625 24.6529 2.98828 24.6529H3.71094V28.1748C3.71094 28.5098 3.99414 28.7777 4.32617 28.7777C4.66797 28.7777 4.94141 28.5002 4.94141 28.1748V24.6434H7.45117L9.69727 28.127V28.1557C9.69727 28.4906 9.98047 28.7586 10.3125 28.7586C10.6543 28.7586 10.9277 28.4811 10.9277 28.1557V24.6434H11.6504C11.9922 24.6434 12.2656 24.3658 12.2656 24.0404C12.2852 23.7055 12.002 23.4375 11.6602 23.4375ZM9.70703 22.5379V23.4375H8.13477L7.5586 22.5379H9.70703ZM4.93164 20.7482L5.30274 21.332H4.93164V20.7482ZM4.93164 23.4375V22.5379H6.08399L6.66016 23.4375H4.93164ZM9.70703 25.8779L8.91602 24.6434H9.70703V25.8779Z" fill="#04435F"></path>
  <path d="M30.4688 0H5.46875C2.45117 0 0 2.40215 0 5.35938V35.2188C0 36.4916 1.04492 37.5156 2.34375 37.5156H24.2188C25.5176 37.5156 26.5625 36.4916 26.5625 35.2188V25.2656H32.8125C34.541 25.2656 35.9375 23.8971 35.9375 22.2031V5.35938C35.9375 2.40215 33.4863 0 30.4688 0ZM25 5.35938V35.2188C25 35.6398 24.6484 35.9844 24.2188 35.9844H2.34375C1.91406 35.9844 1.5625 35.6398 1.5625 35.2188V5.35938C1.5625 3.24434 3.31055 1.53125 5.46875 1.53125H26.6406C25.5957 2.53613 25 3.91426 25 5.35938ZM26.5625 23.7344V14.5469H28.9062C29.3359 14.5469 29.6875 14.8914 29.6875 15.3125V22.2031C29.6875 22.7391 29.8438 23.275 30.1172 23.7344H26.5625ZM34.375 22.2031C34.375 23.0453 33.6719 23.7344 32.8125 23.7344C31.9531 23.7344 31.25 23.0453 31.25 22.2031V15.3125C31.25 14.0396 30.2051 13.0156 28.9062 13.0156H26.5625V5.35938C26.5625 3.24434 28.3105 1.53125 30.4688 1.53125C32.627 1.53125 34.375 3.24434 34.375 5.35938V22.2031Z" fill="#04435F"></path>
  <path d="M21.875 13.0156H4.6875C4.25781 13.0156 3.90625 13.3602 3.90625 13.7812C3.90625 14.2023 4.25781 14.5469 4.6875 14.5469H21.875C22.3047 14.5469 22.6562 14.2023 22.6562 13.7812C22.6562 13.3602 22.3047 13.0156 21.875 13.0156Z" fill="#04435F"></path>
  <path d="M21.875 18.375H14.0625C13.6328 18.375 13.2812 18.7195 13.2812 19.1406C13.2812 19.5617 13.6328 19.9062 14.0625 19.9062H21.875C22.3047 19.9062 22.6562 19.5617 22.6562 19.1406C22.6562 18.7195 22.3047 18.375 21.875 18.375Z" fill="#04435F"></path>
  <path d="M21.875 23.7344H14.0625C13.6328 23.7344 13.2812 24.0789 13.2812 24.5C13.2812 24.9211 13.6328 25.2656 14.0625 25.2656H21.875C22.3047 25.2656 22.6562 24.9211 22.6562 24.5C22.6562 24.0789 22.3047 23.7344 21.875 23.7344Z" fill="#04435F"></path>
  <path d="M21.875 29.0938H14.0625C13.6328 29.0938 13.2812 29.4383 13.2812 29.8594C13.2812 30.2805 13.6328 30.625 14.0625 30.625H21.875C22.3047 30.625 22.6562 30.2805 22.6562 29.8594C22.6562 29.4383 22.3047 29.0938 21.875 29.0938Z" fill="#04435F"></path>
  <path d="M21.875 7.65625H4.6875C4.25781 7.65625 3.90625 8.00078 3.90625 8.42188C3.90625 8.84297 4.25781 9.1875 4.6875 9.1875H21.875C22.3047 9.1875 22.6562 8.84297 22.6562 8.42188C22.6562 8.00078 22.3047 7.65625 21.875 7.65625Z" fill="#04435F"></path>
</svg>
