<?xml version="1.0" encoding="UTF-8"?>
<svg xmlns="http://www.w3.org/2000/svg" width="48" height="45" viewBox="0 0 48 45" fill="none">
  <path d="M31.3916 12.2539C22.5104 12.2539 15.3135 19.4508 15.3135 28.332C15.3135 37.2133 22.5104 44.4102 31.3916 44.4102C40.2729 44.4102 47.4697 37.2133 47.4697 28.332C47.4602 19.4604 40.2633 12.2635 31.3916 12.2539ZM43.6416 29.0977H40.5791C40.225 29.0977 39.9092 28.8488 39.8326 28.4947L39.0861 25.1451L37.4975 33.0789C37.4113 33.4904 37.0094 33.7584 36.5979 33.6818C36.3203 33.6244 36.1002 33.4234 36.0141 33.1555L34.2723 27.3463L33.6119 28.6861C33.4779 28.9445 33.21 29.1072 32.9229 29.1072H28.8842L26.7596 35.4715C26.6256 35.8734 26.1949 36.0936 25.793 35.9596C25.5154 35.8639 25.3049 35.615 25.2762 35.3184L24.1182 25.4418L22.9314 28.6096C22.8166 28.9062 22.5295 29.1072 22.2137 29.1072H19.1512C18.7301 29.1072 18.3855 28.7627 18.3855 28.3416C18.3855 27.9205 18.7301 27.576 19.1512 27.576H21.6873L23.7928 21.9486C23.9363 21.5563 24.3861 21.3553 24.7785 21.4988C25.0465 21.6041 25.2379 21.8434 25.2666 22.1305L26.3959 31.7391L27.6113 28.1023C27.7166 27.7865 28.0037 27.576 28.3387 27.576H32.4635L33.7842 24.9346C33.9756 24.5518 34.435 24.3986 34.8082 24.59C34.9996 24.6857 35.1432 24.8484 35.2006 25.059L36.617 29.7771L38.3109 21.2979C38.3971 20.8863 38.799 20.6184 39.2105 20.6949C39.5072 20.7523 39.7369 20.982 39.8039 21.2787L41.2012 27.576H43.6416C44.0627 27.576 44.4072 27.9205 44.4072 28.3416C44.4072 28.7627 44.0627 29.0977 43.6416 29.0977Z" fill="#B7E3EE"></path>
  <path d="M26.9993 0.00403749C24.0994 -0.072525 21.2858 0.941928 19.1133 2.86556C16.9409 0.951499 14.1272 -0.072525 11.2274 0.00403749C1.20726 0.243295 -3.91286 12.4167 3.56155 19.872L17.4959 33.7872C18.3955 34.6773 19.8407 34.6773 20.7403 33.7872L34.6746 19.872C42.1395 12.4167 37.0289 0.243295 26.9993 0.00403749ZM33.5836 18.7906L19.6588 32.7058C19.3621 33.0025 18.8741 33.0025 18.5774 32.7058L4.643 18.7906C-1.6447 12.5124 2.34612 1.7554 11.2657 1.53529C14.0028 1.45873 16.6442 2.52103 18.5774 4.45423C18.8741 4.75091 19.3621 4.75091 19.6588 4.45423C21.5825 2.51146 24.2334 1.44915 26.9705 1.52572C35.8805 1.74583 39.8713 12.5124 33.5836 18.7906Z" fill="#04435F"></path>
  <path d="M26.0039 13.0195H22.1758V9.19141C22.1758 8.77031 21.8313 8.42578 21.4102 8.42578H16.8164C16.3953 8.42578 16.0508 8.77031 16.0508 9.19141V13.0195H12.2227C11.8016 13.0195 11.457 13.3641 11.457 13.7852V18.3789C11.457 18.8 11.8016 19.1445 12.2227 19.1445H16.0508V22.9727C16.0508 23.3938 16.3953 23.7383 16.8164 23.7383H21.4102C21.8313 23.7383 22.1758 23.3938 22.1758 22.9727V19.1445H26.0039C26.425 19.1445 26.7695 18.8 26.7695 18.3789V13.7852C26.7695 13.3641 26.425 13.0195 26.0039 13.0195ZM25.2383 17.6133H21.4102C20.9891 17.6133 20.6445 17.9578 20.6445 18.3789V22.207H17.582V18.3789C17.582 17.9578 17.2375 17.6133 16.8164 17.6133H12.9883V14.5508H16.8164C17.2375 14.5508 17.582 14.2063 17.582 13.7852V9.95703H20.6445V13.7852C20.6445 14.2063 20.9891 14.5508 21.4102 14.5508H25.2383V17.6133Z" fill="#04435F"></path>
</svg>
