<?xml version="1.0" encoding="UTF-8"?>
<svg width="1105px" height="475px" viewBox="0 0 1105 475" version="1.1" xmlns="http://www.w3.org/2000/svg" xmlns:xlink="http://www.w3.org/1999/xlink">
    <title>Black</title>
    <defs>
        <path d="M105.913705,0.655103568 L105.913705,33.5661824 L104.199586,33.5661824 L82.9445146,4.76898842 L44.548256,4.76898842 L44.548256,59.2779627 L65.6319158,59.2779627 L84.8300451,48.9932506 L86.5441638,48.9932506 L86.5441638,73.6765597 L84.8300451,73.6765597 L65.6319158,63.3918475 L44.548256,63.3918475 L44.548256,111.215759 L60.8323835,118.929293 L60.8323835,120.643412 L7.18046858,120.643412 L7.18046858,118.929293 L20.8934181,111.215759 L20.8934181,10.0827564 L7.18046858,2.36922226 L7.18046858,0.655103568 L105.913705,0.655103568 Z M202.965472,112.24423 L214.107244,119.272117 L214.107244,120.643412 L184.967226,120.643412 L181.024753,106.244815 C174.853926,114.98682 165.769097,122.700354 152.056147,122.700354 C133.886489,122.700354 124.116013,112.587054 124.116013,94.7602195 L124.116013,42.8224233 L111.94577,35.7945367 L111.94577,34.4232417 L146.399556,34.4232417 L146.399556,93.2175127 C146.399556,105.216344 151.027676,112.24423 161.4838,112.24423 C169.71157,112.24423 175.882397,108.130345 180.681929,101.616694 L180.681929,42.8224233 L168.511687,35.7945367 L168.511687,34.4232417 L202.965472,34.4232417 L202.965472,112.24423 Z M283.733112,38.1943028 L257.84992,38.1943028 L257.84992,98.7026925 C257.84992,107.958933 261.106746,113.101289 267.791808,113.101289 C272.591341,113.101289 276.705226,110.530111 280.476287,104.187872 L283.733112,105.901991 C278.590756,116.529527 271.048634,122.700354 258.192744,122.700354 C243.451323,122.700354 235.566377,114.129761 235.566377,101.445282 L235.566377,38.1943028 L222.710487,38.1943028 L222.710487,34.7660655 L234.195082,31.5092399 L256.650037,10.596992 L257.84992,10.596992 L257.84992,34.4232417 L283.733112,34.4232417 L283.733112,38.1943028 Z M381.470527,112.24423 L392.612299,119.272117 L392.612299,120.643412 L363.472281,120.643412 L359.529808,106.244815 C353.358981,114.98682 344.274152,122.700354 330.561202,122.700354 C312.391544,122.700354 302.621067,112.587054 302.621067,94.7602195 L302.621067,42.8224233 L290.450825,35.7945367 L290.450825,34.4232417 L324.90461,34.4232417 L324.90461,93.2175127 C324.90461,105.216344 329.532731,112.24423 339.988855,112.24423 C348.216625,112.24423 354.387452,108.130345 359.186984,101.616694 L359.186984,42.8224233 L347.016741,35.7945367 L347.016741,34.4232417 L381.470527,34.4232417 L381.470527,112.24423 Z M462.923814,33.0519468 C467.209111,33.0519468 470.294525,33.3947705 474.922645,34.4232417 L474.065586,61.8491407 L472.694291,61.8491407 L456.06734,41.6225402 C449.210865,43.5080708 444.068509,48.3076031 440.126036,55.5069016 L440.126036,112.587054 L455.553104,119.272117 L455.553104,120.643412 L406.700721,120.643412 L406.700721,119.272117 L417.842493,112.587054 L417.842493,42.8224233 L405.67225,35.7945367 L405.67225,34.4232417 L435.840739,34.4232417 L440.126036,49.8503099 C445.439804,39.9084215 452.981926,33.0519468 462.923814,33.0519468 Z M565.43244,94.0745721 L568.689265,95.6172789 C562.861262,110.3587 551.205255,122.700354 528.921712,122.700354 C503.381343,122.700354 484.868861,104.87352 484.868861,78.6475039 C484.868861,49.1646624 504.066991,32.3662993 529.093124,32.3662993 C553.090785,32.3662993 568.346441,46.0792488 568.346441,70.4197342 L568.346441,75.7335021 L508.695111,75.7335021 C509.037935,99.7311637 520.52253,112.24423 536.463834,112.24423 C551.205255,112.24423 559.604436,104.187872 565.43244,94.0745721 Z M529.264535,36.1373604 C517.77994,36.1373604 509.209347,47.7933675 508.695111,71.962441 L546.062899,71.962441 L546.062899,68.3627917 C545.720075,46.0792488 540.406307,36.1373604 529.264535,36.1373604 Z M113.970063,299.066214 L126.311717,307.293984 L126.311717,309.008103 L75.5738042,309.008103 L75.5738042,307.293984 L89.8009893,299.751862 L76.2594517,265.6409 L30.6638946,265.6409 L19.693535,294.438094 L40.2629593,307.293984 L40.2629593,309.008103 L0.323993826,309.008103 L0.323993826,307.293984 L15.4082383,293.923858 L50.8904951,201.018625 L46.2623747,190.905325 L46.2623747,189.019795 L70.2600363,189.019795 L113.970063,299.066214 Z M32.2066014,261.527015 L74.7167449,261.527015 L53.1188494,206.675217 L32.2066014,261.527015 Z M176.568045,186.962852 C185.31005,186.962852 190.966642,187.819911 200.222882,189.362618 L199.022999,214.902987 L197.651704,214.902987 L182.224636,191.076737 C180.853341,190.905325 179.653458,190.733913 178.624987,190.733913 C171.939924,190.733913 168.168863,195.362034 168.168863,206.503805 L168.168863,222.787933 L195.080526,222.787933 L195.080526,226.558994 L168.168863,226.558994 L168.168863,300.951745 L183.595931,307.636808 L183.595931,309.008103 L134.743549,309.008103 L134.743549,307.636808 L145.88532,300.951745 L145.88532,226.558994 L132.686606,226.558994 L132.686606,222.787933 L145.88532,222.787933 L145.88532,216.617105 C145.88532,196.390505 157.541327,186.962852 176.568045,186.962852 Z M260.278008,221.416638 C264.563305,221.416638 267.648718,221.759461 272.276839,222.787933 L271.419779,250.213832 L270.048484,250.213832 L253.421533,229.987231 C246.565058,231.872762 241.422702,236.672294 237.480229,243.871593 L237.480229,300.951745 L252.907298,307.636808 L252.907298,309.008103 L204.054915,309.008103 L204.054915,307.636808 L215.196686,300.951745 L215.196686,231.187114 L203.026444,224.159228 L203.026444,222.787933 L233.194933,222.787933 L237.480229,238.215001 C242.793997,228.273112 250.33612,221.416638 260.278008,221.416638 Z M322.533166,197.076152 L307.963157,211.303337 L293.735972,197.076152 L307.963157,182.848967 L322.533166,197.076152 Z M319.961988,300.951745 L331.103759,307.636808 L331.103759,309.008103 L286.536674,309.008103 L286.536674,307.636808 L297.678445,300.951745 L297.678445,231.187114 L285.508202,224.159228 L285.508202,222.787933 L319.961988,222.787933 L319.961988,300.951745 Z M413.691983,254.841952 L394.322442,226.387582 C391.237028,225.187699 388.494438,224.502051 385.409024,224.502051 C374.610077,224.502051 362.95407,236.843706 362.95407,263.069722 C362.95407,288.438678 375.467136,300.951745 390.208557,300.951745 C404.26433,300.951745 412.149276,292.895387 417.463044,283.296322 L420.719869,284.839029 C415.406101,298.551979 404.607154,310.893633 382.495023,311.065045 C357.46889,311.236457 339.12782,293.409623 339.12782,265.983724 C339.12782,237.015118 359.011597,220.73099 384.209141,220.73099 C395.350913,220.73099 405.121389,222.445109 416.263161,224.844875 L415.063278,254.841952 L413.691983,254.841952 Z M505.895878,300.608921 L517.037649,307.636808 L517.037649,309.008103 L487.897631,309.008103 L483.955158,294.952329 C477.270096,305.06563 467.499619,311.065045 456.015024,311.065045 C442.987722,311.065045 428.246301,305.579865 428.246301,286.895972 C428.246301,272.668787 440.245132,265.298076 454.129493,262.041251 C464.585617,259.470073 475.041741,256.898895 483.612335,254.67054 L483.612335,241.643238 C483.612335,230.844291 479.49845,224.502051 469.899385,224.502051 C466.985383,224.502051 463.728558,224.844875 459.271849,226.387582 L438.188189,253.642069 L436.816895,253.642069 L435.617011,225.016287 C449.501373,222.273697 461.15738,220.73099 473.327623,220.73099 C496.125401,220.73099 505.895878,231.872762 505.895878,246.099947 L505.895878,300.608921 Z M465.7855,301.46598 C472.299151,301.46598 478.127155,297.866331 483.612335,290.324209 L483.612335,257.927366 C477.270096,259.812896 470.927856,261.698427 465.956912,263.412546 C455.500788,267.183607 450.701256,274.211493 450.701256,283.98197 C450.701256,294.780918 457.043495,301.46598 465.7855,301.46598 Z" id="path-1"></path>
        <filter x="-6.2%" y="-8.1%" width="112.3%" height="122.6%" filterUnits="objectBoundingBox" id="filter-2">
            <feOffset dx="0" dy="10" in="SourceAlpha" result="shadowOffsetOuter1"></feOffset>
            <feGaussianBlur stdDeviation="10" in="shadowOffsetOuter1" result="shadowBlurOuter1"></feGaussianBlur>
            <feColorMatrix values="0 0 0 0 0   0 0 0 0 0   0 0 0 0 0  0 0 0 0.0974377185 0" type="matrix" in="shadowBlurOuter1"></feColorMatrix>
        </filter>
    </defs>
    <g id="Black" stroke="none" stroke-width="1" fill="none" fill-rule="evenodd">
        <g id="Logo-Copy-4" transform="translate(20.000000, 10.000000)">
            <g id="Group-2-Copy-3" transform="translate(496.086575, 62.417799)">
                <g id="Group-9-Copy" transform="translate(0.846017, 0.432642)">
                    <g id="Future-Africa">
                        <use fill="black" fill-opacity="1" filter="url(#filter-2)" xlink:href="#path-1"></use>
                        <use fill="#2E2E2E" fill-rule="evenodd" xlink:href="#path-1"></use>
                    </g>
                </g>
            </g>
            <g id="Group-Copy-2" transform="translate(0.140499, 0.793128)">
                <path d="M217.726423,344.445524 C229.318135,358.018812 235.113991,373.177205 235.113991,389.920704 C235.113991,406.664203 229.318135,421.822596 217.726423,435.395884 C206.13471,421.822596 200.338854,406.664203 200.338854,389.920704 C200.338854,373.177205 206.13471,358.018812 217.726423,344.445524 Z M307.330359,307.330359 C325.124701,308.731544 339.941593,315.351857 351.781034,327.191299 C363.620476,339.030741 370.240789,353.847632 371.641975,371.641975 C353.847632,370.240789 339.030741,363.620476 327.191299,351.781034 C315.351857,339.941593 308.731544,325.124701 307.330359,307.330359 Z M128.122487,307.330359 C126.721302,325.124701 120.100988,339.941593 108.261547,351.781034 C96.4221051,363.620476 81.6052132,370.240789 63.810871,371.641975 C65.2120562,353.847632 71.8323696,339.030741 83.6718112,327.191299 C95.5112527,315.351857 110.328145,308.731544 128.122487,307.330359 Z M389.920704,200.338854 C406.664203,200.338854 421.822596,206.13471 435.395884,217.726423 C421.822596,229.318135 406.664203,235.113991 389.920704,235.113991 C373.177205,235.113991 358.018812,229.318135 344.445524,217.726423 C358.018812,206.13471 373.177205,200.338854 389.920704,200.338854 Z M45.5321417,200.338854 C62.2756405,200.338854 77.4340337,206.13471 91.0073213,217.726423 C77.4340337,229.318135 62.2756405,235.113991 45.5321417,235.113991 C28.7886428,235.113991 13.6302496,229.318135 0.0569620029,217.726423 C13.6302496,206.13471 28.7886428,200.338854 45.5321417,200.338854 Z M371.641975,63.810871 C370.240789,81.6052132 363.620476,96.4221051 351.781034,108.261547 C339.941593,120.100988 325.124701,126.721302 307.330359,128.122487 C308.731544,110.328145 315.351857,95.5112527 327.191299,83.6718112 C339.030741,71.8323696 353.847632,65.2120562 371.641975,63.810871 Z M63.810871,63.810871 C81.6052132,65.2120562 96.4221051,71.8323696 108.261547,83.6718112 C120.100988,95.5112527 126.721302,110.328145 128.122487,128.122487 C110.328145,126.721302 95.5112527,120.100988 83.6718112,108.261547 C71.8323696,96.4221051 65.2120562,81.6052132 63.810871,63.810871 Z M217.726423,0.0569620022 C229.318135,13.6302496 235.113991,28.7886428 235.113991,45.5321417 C235.113991,62.2756405 229.318135,77.4340337 217.726423,91.0073213 C206.13471,77.4340337 200.338854,62.2756405 200.338854,45.5321417 C200.338854,28.7886428 206.13471,13.6302496 217.726423,0.0569620022 Z" id="Combined-Shape" fill="#3CAC70"></path>
                <path d="M217.726423,106.447339 C279.184163,106.447339 329.005506,156.268682 329.005506,217.726423 C329.005506,279.184163 279.184163,329.005506 217.726423,329.005506 C156.268682,329.005506 106.447339,279.184163 106.447339,217.726423 C106.447339,156.268682 156.268682,106.447339 217.726423,106.447339 Z M217.726423,128.139383 C168.248867,128.139383 128.139383,168.248867 128.139383,217.726423 C128.139383,267.203979 168.248867,307.313463 217.726423,307.313463 C267.203979,307.313463 307.313463,267.203979 307.313463,217.726423 C307.313463,168.248867 267.203979,128.139383 217.726423,128.139383 Z M217.726423,147.633934 C256.695079,147.633934 288.285417,179.224271 288.285417,218.192928 C288.285417,253.24443 262.72684,282.326406 229.229634,287.81891 L229.229993,268.929508 C252.420556,263.693832 269.739444,242.965902 269.739444,218.192928 C269.739444,189.46693 246.452421,166.179907 217.726423,166.179907 C189.000425,166.179907 165.713402,189.46693 165.713402,218.192928 C165.713402,242.965902 183.03229,263.693832 206.222852,268.929508 L206.223212,287.81891 C172.726005,282.326406 147.167429,253.24443 147.167429,218.192928 C147.167429,179.224271 178.757766,147.633934 217.726423,147.633934 Z M217.726423,184.508002 C236.07245,184.508002 250.944843,199.380396 250.944843,217.726423 C250.944843,236.07245 236.07245,250.944843 217.726423,250.944843 C199.380396,250.944843 184.508002,236.07245 184.508002,217.726423 C184.508002,199.380396 199.380396,184.508002 217.726423,184.508002 Z" id="Combined-Shape" fill="#FBBB07" fill-rule="nonzero" transform="translate(217.726423, 217.726423) scale(-1, 1) translate(-217.726423, -217.726423) "></path>
            </g>
        </g>
    </g>
</svg>